<svg width="1132" height="389" viewBox="0 0 1132 389" fill="none" xmlns="http://www.w3.org/2000/svg">
<path d="M179.209 528.242C179.209 605.863 216.085 648.989 283.049 648.989C349.041 648.989 385.919 605.863 385.919 528.242V143H502.375V528.242C502.375 697.863 423.767 792.735 283.049 792.735C157.859 792.735 82.161 719.904 65.6621 584.781L-274 811.901V649.947L62.7515 425.704V411.327C62.7515 325.08 14.2275 277.164 -73.113 277.164H-274V143H-73.113C88.9552 143 179.209 238.831 179.209 411.327V528.242Z" fill="url(#paint0_linear_359_6)" fill-opacity="0.2"/>
<path d="M803.041 132.423C736.048 93.2187 680.202 103.264 646.381 161.059C613.05 218.015 631.646 271.626 698.639 310.83L1031.13 505.403L972.315 605.914L639.82 411.341C493.424 325.67 451.245 209.909 522.317 88.4577C585.546 -19.5909 686.638 -48.1396 811.593 5.86691L787.123 -402L926.902 -320.202L950.359 83.6997L962.767 90.9606C1037.21 134.522 1103.07 116.842 1147.18 41.4605L1248.64 -131.921L1364.44 -64.1591L1262.98 109.223C1181.12 249.1 1052.83 278.595 903.948 191.473L803.041 132.423Z" fill="url(#paint1_linear_359_6)" fill-opacity="0.2"/>
<path d="M74.4517 286.634C77.3763 209.068 42.1513 164.583 -24.7647 162.06C-90.7099 159.574 -129.187 201.279 -132.111 278.845L-146.626 663.814L-263 659.426L-248.485 274.458C-242.094 104.957 -159.967 13.1146 -19.3487 18.4166C105.752 23.1335 178.652 98.7648 190.048 234.414L538.027 20.2523L531.925 182.091L186.963 393.488L186.421 407.853C183.172 494.04 229.856 543.75 317.134 547.041L517.879 554.61L512.824 688.678L312.079 681.109C150.126 675.003 63.5473 575.839 70.0466 403.466L74.4517 286.634Z" fill="url(#paint2_linear_359_6)" fill-opacity="0.2"/>
<path d="M846.427 344.941C919.382 381.306 982.238 356.727 1022.77 275.406C1062.72 195.264 1044.51 130.274 971.555 93.9095L609.469 -86.5735L679.964 -228L1042.05 -47.5171C1201.47 31.949 1243.06 171.858 1157.88 342.749C1082.1 494.782 967.822 552.59 830.834 509.322L838.694 1028.22L686.475 952.344L679.556 438.331L666.045 431.595C584.981 391.189 510.573 427.669 457.703 533.737L336.099 777.698L210 714.843L331.603 470.882C429.708 274.064 574.412 209.355 736.54 290.168L846.427 344.941Z" fill="url(#paint3_linear_359_6)" fill-opacity="0.15"/>
<defs>
<linearGradient id="paint0_linear_359_6" x1="502.375" y1="477.451" x2="-274" y2="477.451" gradientUnits="userSpaceOnUse">
<stop offset="0.379808" stop-color="white"/>
<stop offset="1" stop-color="#999999" stop-opacity="0"/>
</linearGradient>
<linearGradient id="paint1_linear_359_6" x1="683.658" y1="436.994" x2="1075.78" y2="-233.08" gradientUnits="userSpaceOnUse">
<stop offset="0.379808" stop-color="white"/>
<stop offset="1" stop-color="#999999" stop-opacity="0"/>
</linearGradient>
<linearGradient id="paint2_linear_359_6" x1="-250.399" y1="325.213" x2="525.425" y2="354.465" gradientUnits="userSpaceOnUse">
<stop offset="0.379808" stop-color="white"/>
<stop offset="1" stop-color="#999999" stop-opacity="0"/>
</linearGradient>
<linearGradient id="paint3_linear_359_6" x1="994.311" y1="-71.3126" x2="524.347" y2="871.531" gradientUnits="userSpaceOnUse">
<stop offset="0.379808" stop-color="white"/>
<stop offset="1" stop-color="#999999" stop-opacity="0"/>
</linearGradient>
</defs>
</svg>
