<svg width="335" height="335" viewBox="0 0 335 335" fill="none" xmlns="http://www.w3.org/2000/svg">
<path d="M309.705 0C323.28 0 334.286 11.0048 334.286 24.5801V310.022C334.286 310.046 334.285 310.069 334.285 310.093V244.28C334.285 255.057 321.428 268.914 306 267.888C303.632 267.73 301.519 267.536 299.597 267.359C288.993 266.387 284.206 265.949 274.628 275.072C267.442 281.917 267.517 289.798 267.606 299.107C267.658 304.455 267.713 310.275 266.399 316.641C263.519 330.6 243.257 334.431 233.485 334.603H309.775C309.752 334.603 309.728 334.604 309.705 334.604H24.5801C11.0048 334.603 0 323.598 0 310.022V24.5801C0.000156221 11.0049 11.0049 0.000157896 24.5801 0H309.705Z" fill="currentColor"/>
</svg>
