<svg width="1146" height="298" viewBox="0 0 1146 298" fill="none" xmlns="http://www.w3.org/2000/svg">
<g clip-path="url(#clip0_21_352)">
<path d="M150.397 123.908C180.536 123.908 197.281 109.769 197.281 84.0939C197.281 58.7913 180.536 44.6516 150.397 44.6516H0.813965V0H150.397C216.258 0 253.095 30.1398 253.095 84.0939C253.095 132.094 224.816 161.118 172.35 167.444L260.537 297.677H197.653L110.583 168.56H105.001C71.5124 168.56 52.9076 187.165 52.9076 220.653V297.677H0.813965V220.653C0.813965 158.513 38.0237 123.908 105.001 123.908H150.397Z" fill="#0A0A0A"/>
</g>
<path d="M520.959 109.272V153.923H410.074C376.585 153.923 357.98 172.528 357.98 206.017V253.273H528.401V297.925H305.887V213.459C305.887 146.481 343.097 109.272 410.074 109.272H520.959Z" fill="#0A0A0A"/>
<path d="M305.708 0V44.6516L528.346 45.2718V0H305.708Z" fill="#FF1801"/>
<path d="M680.309 297.677L572.401 0H627.844L706.357 216.56L784.869 0H840.311L732.403 297.677H680.309Z" fill="#0A0A0A"/>
<path d="M1034.53 110.509C1031.25 115.202 1029.52 118.968 1028.81 121.704C1028.42 123.228 1028.34 124.468 1028.52 125.38C1028.7 126.282 1029.17 126.992 1029.97 127.146C1030.72 127.291 1031.51 126.882 1032.22 126.191C1032.95 125.481 1033.68 124.386 1034.33 122.911C1035.48 120.303 1036.41 116.447 1036.61 111.255L1056.91 154.431C1043.24 149.698 1034.49 147.965 1029.51 147.911C1028.23 147.897 1027.18 147.994 1026.35 148.188C1025.53 148.38 1024.88 148.677 1024.45 149.098C1024 149.54 1023.82 150.093 1023.91 150.687C1023.99 151.252 1024.31 151.813 1024.76 152.342C1025.68 153.403 1027.28 154.491 1029.36 155.44C1031.46 156.394 1034.08 157.226 1037.05 157.752C1041.67 158.567 1047.17 158.65 1052.96 157.306L984.923 192.982C963.708 203.813 951.465 211.733 944.524 218.395C941.048 221.732 938.887 224.767 937.598 227.71C936.308 230.656 935.905 233.481 935.905 236.376C935.905 242.212 938.112 246.693 942.689 249.687C947.228 252.656 954.042 254.129 963.196 254.129H1144.28V297.177H965.801C939.819 297.177 919.569 291.409 905.825 280.899C892.099 270.403 884.811 255.139 884.811 236.008C884.811 219.409 889.058 205.119 900.695 191.178C912.352 177.215 931.444 163.578 961.191 148.355L961.192 148.354L1034.53 110.509ZM1029.5 148.911C1034.29 148.963 1042.85 150.634 1056.36 155.3C1049.41 157.645 1042.68 157.731 1037.23 156.767C1034.33 156.255 1031.79 155.447 1029.78 154.531C1027.76 153.61 1026.3 152.595 1025.52 151.689C1025.13 151.235 1024.94 150.846 1024.89 150.543C1024.85 150.268 1024.93 150.033 1025.15 149.812C1025.4 149.571 1025.84 149.333 1026.58 149.162C1027.3 148.992 1028.27 148.897 1029.5 148.911ZM1035.63 110.682C1035.48 116.053 1034.54 119.954 1033.41 122.506C1032.79 123.907 1032.13 124.883 1031.52 125.476C1030.89 126.088 1030.42 126.214 1030.16 126.164C1029.94 126.122 1029.64 125.905 1029.5 125.187C1029.36 124.478 1029.41 123.401 1029.78 121.952C1030.46 119.293 1032.21 115.5 1035.63 110.682Z" fill="#0A0A0A" stroke="#0A0A0A"/>
<path d="M995.729 187.342C999.002 182.659 1000.73 178.899 1001.43 176.168C1001.82 174.643 1001.9 173.404 1001.72 172.492C1001.54 171.59 1001.08 170.879 1000.28 170.726C999.527 170.581 998.731 170.989 998.024 171.681C997.298 172.39 996.567 173.486 995.916 174.961C994.766 177.564 993.837 181.411 993.631 186.59L973.326 142.769C986.997 147.503 995.751 149.237 1000.73 149.291C1002.01 149.305 1003.06 149.208 1003.89 149.015C1004.72 148.823 1005.36 148.525 1005.79 148.104C1006.24 147.662 1006.42 147.11 1006.34 146.516C1006.26 145.95 1005.94 145.39 1005.48 144.86C1004.57 143.8 1002.96 142.711 1000.88 141.762C998.785 140.807 996.168 139.976 993.191 139.45C988.583 138.637 983.095 138.553 977.322 139.888L1044.71 104.693C1065.92 93.8632 1078.16 85.9436 1085.1 79.2822C1088.58 75.9456 1090.74 72.9104 1092.02 69.9678C1093.32 67.0216 1093.72 64.1969 1093.72 61.3018C1093.72 55.465 1091.51 50.9845 1086.93 47.9902C1082.4 45.0209 1075.58 43.5488 1066.43 43.5488L885.344 43.5488V0.5L1063.82 0.5C1089.8 0.5 1110.05 6.26847 1123.8 16.7783C1137.52 27.2745 1144.81 42.5386 1144.81 61.6689C1144.81 78.2681 1140.57 92.5587 1128.93 106.499C1117.27 120.462 1098.18 134.099 1068.43 149.322L1068.43 149.324L995.729 187.342ZM1000.74 148.291C995.953 148.239 987.392 146.569 973.877 141.902C980.832 139.558 987.561 139.472 993.017 140.436C995.918 140.948 998.453 141.755 1000.46 142.672C1002.49 143.593 1003.94 144.608 1004.72 145.514C1005.12 145.967 1005.3 146.356 1005.35 146.659C1005.39 146.934 1005.32 147.17 1005.09 147.391C1004.85 147.632 1004.4 147.87 1003.67 148.041C1002.94 148.211 1001.98 148.304 1000.74 148.291ZM994.613 187.189C994.767 181.818 995.703 177.918 996.831 175.365C997.449 173.965 998.116 172.989 998.723 172.396C999.349 171.784 999.824 171.657 1000.09 171.708C1000.31 171.75 1000.6 171.966 1000.74 172.685C1000.88 173.394 1000.83 174.471 1000.46 175.92C999.779 178.578 998.036 182.372 994.613 187.189Z" fill="#0A0A0A" stroke="#0A0A0A"/>
<defs>
<clipPath id="clip0_21_352">
<rect width="261.708" height="297.677" fill="white"/>
</clipPath>
</defs>
</svg>
