<svg width="700" height="182" viewBox="0 0 700 182" fill="none" xmlns="http://www.w3.org/2000/svg">
<g clip-path="url(#clip0_47_579)">
<mask id="mask0_47_579" style="mask-type:luminance" maskUnits="userSpaceOnUse" x="0" y="0" width="161" height="182">
<path d="M160.136 0H0V181.803H160.136V0Z" fill="white"/>
</mask>
<g mask="url(#mask0_47_579)">
<path d="M92.0261 75.6754C110.468 75.6754 120.714 67.0401 120.714 51.3594C120.714 35.9061 110.468 27.2704 92.0261 27.2704H0.498047V0H92.0261C132.326 0 154.866 18.4075 154.866 51.3594C154.866 80.6749 137.562 98.4009 105.459 102.264L159.419 181.803H120.942L67.6644 102.946H64.2489C43.7576 102.946 32.3735 114.309 32.3735 134.761V181.803H0.498047V134.761C0.498047 96.81 23.2662 75.6754 64.2489 75.6754H92.0261Z" fill="white"/>
</g>
<path d="M318.543 66.5851V93.8558H250.693C230.201 93.8558 218.818 105.219 218.818 125.672V154.533H323.096V181.803H186.942V130.216C186.942 89.3107 209.711 66.5851 250.693 66.5851H318.543Z" fill="white"/>
<path d="M186.833 0V27.2704L323.062 27.6492V0H186.833Z" fill="#FF1801"/>
<path d="M318.543 66.5851V93.8558H250.693C230.201 93.8558 218.818 105.219 218.818 125.672V154.533H323.096V181.803H186.942V130.216C186.942 89.3107 209.711 66.5851 250.693 66.5851H318.543Z" fill="white"/>
<path d="M186.833 0V27.2704L323.062 27.6492V0H186.833Z" fill="#FF1801"/>
<path d="M318.543 66.5851V93.8558H250.693C230.201 93.8558 218.818 105.219 218.818 125.672V154.533H323.096V181.803H186.942V130.216C186.942 89.3107 209.711 66.5851 250.693 66.5851H318.543Z" fill="white"/>
<path d="M186.833 0V27.2704L323.062 27.6492V0H186.833Z" fill="#FF1801"/>
<path d="M415.613 181.803L349.585 0H383.509L431.551 132.261L479.591 0H513.516L447.488 181.803H415.613Z" fill="white"/>
<path d="M631.658 67.4921C629.645 70.3583 628.587 72.6583 628.158 74.3293C627.92 75.26 627.871 76.0174 627.981 76.5744C628.085 77.1252 628.372 77.5589 628.862 77.6529C629.321 77.7415 629.81 77.4917 630.245 77.0697C630.685 76.636 631.132 75.9673 631.53 75.0664C632.24 73.4736 632.809 71.1186 632.931 67.9477L645.352 94.3169C636.988 91.4263 631.634 90.3679 628.587 90.3349C627.803 90.3263 627.161 90.3856 626.653 90.5041C626.145 90.6213 625.754 90.8027 625.49 91.0598C625.215 91.3298 625.105 91.6675 625.154 92.0303C625.203 92.3754 625.399 92.718 625.68 93.0411C626.237 93.6891 627.222 94.3536 628.495 94.9331C629.78 95.5158 631.377 96.0239 633.2 96.3452C636.027 96.8429 639.393 96.8936 642.929 96.0728L601.302 117.861C588.321 124.476 580.83 129.313 576.583 133.382C574.456 135.42 573.134 137.274 572.345 139.071C571.556 140.87 571.309 142.596 571.309 144.364C571.309 147.928 572.659 150.665 575.46 152.493C578.237 154.307 582.407 155.206 588.008 155.206H698.813V181.497H589.601C573.704 181.497 561.313 177.975 552.903 171.556C544.505 165.145 540.045 155.823 540.045 144.139C540.045 134.001 542.644 125.274 549.764 116.76C556.897 108.232 568.579 99.9033 586.781 90.6061L586.782 90.6055L631.658 67.4921ZM628.58 90.9456C631.511 90.9774 636.749 91.9979 645.016 94.8476C640.763 96.2798 636.645 96.3323 633.304 95.7436C631.53 95.4309 629.982 94.9374 628.752 94.378C627.51 93.8155 626.622 93.1956 626.145 92.6423C625.9 92.365 625.79 92.1274 625.76 91.9424C625.735 91.7744 625.778 91.6309 625.919 91.4959C626.066 91.3487 626.341 91.2034 626.788 91.0989C627.234 90.9951 627.822 90.9371 628.58 90.9456ZM632.331 67.5977C632.233 70.878 631.664 73.2605 630.973 74.8191C630.594 75.6747 630.184 76.2708 629.817 76.633C629.431 77.0068 629.143 77.0837 628.978 77.0532C628.844 77.0275 628.666 76.895 628.58 76.4565C628.495 76.0235 628.525 75.3657 628.752 74.4807C629.168 72.8568 630.233 70.5403 632.331 67.5977Z" fill="white" stroke="white"/>
<path d="M607.914 114.417C609.917 111.557 610.974 109.261 611.402 107.593C611.641 106.661 611.69 105.905 611.581 105.348C611.473 104.797 611.186 104.362 610.698 104.269C610.238 104.18 609.751 104.43 609.319 104.852C608.874 105.285 608.427 105.955 608.028 106.855C607.325 108.445 606.757 110.795 606.631 113.958L594.206 87.1945C602.571 90.0858 607.927 91.1448 610.976 91.1778C611.76 91.1863 612.402 91.1271 612.91 91.0092C613.412 90.892 613.809 90.71 614.072 90.4528C614.348 90.1829 614.458 89.8458 614.409 89.483C614.354 89.1373 614.158 88.7953 613.883 88.4716C613.32 87.8242 612.341 87.1591 611.066 86.5795C609.784 85.9963 608.183 85.4887 606.361 85.1675C603.542 84.671 600.184 84.6197 596.651 85.435L637.881 63.9401C650.859 57.3259 658.355 52.4891 662.601 48.4207C664.725 46.3829 666.046 44.5292 666.836 42.7321C667.625 40.9327 667.876 39.2076 667.876 37.4394C667.876 33.8746 666.523 31.1382 663.721 29.3095C660.943 27.496 656.776 26.597 651.171 26.597H540.371V0.30542H649.58C665.477 0.30542 677.868 3.82844 686.281 10.2472C694.676 16.6576 699.137 25.98 699.137 37.6636C699.137 47.8014 696.537 56.5292 689.42 65.0431C682.286 73.5708 670.605 81.8994 652.401 91.1967V91.1979L607.914 114.417ZM610.982 90.567C608.051 90.5353 602.813 89.5153 594.543 86.665C598.799 85.2335 602.916 85.1809 606.255 85.7697C608.03 86.0824 609.581 86.5753 610.812 87.1353C612.047 87.6978 612.94 88.3177 613.418 88.871C613.656 89.1477 613.773 89.3853 613.803 89.5703C613.828 89.7383 613.779 89.8824 613.644 90.0174C613.491 90.1646 613.222 90.3099 612.769 90.4144C612.329 90.5182 611.736 90.575 610.982 90.567ZM607.232 114.324C607.326 111.043 607.898 108.661 608.588 107.102C608.967 106.247 609.375 105.651 609.746 105.289C610.129 104.915 610.42 104.838 610.582 104.869C610.715 104.894 610.895 105.026 610.981 105.465C611.066 105.898 611.037 106.556 610.809 107.441C610.393 109.064 609.326 111.382 607.232 114.324Z" fill="white" stroke="white"/>
</g>
<defs>
<clipPath id="clip0_47_579">
<rect width="700" height="182" fill="white"/>
</clipPath>
</defs>
</svg>
