<svg xmlns="http://www.w3.org/2000/svg" version="1.1" xmlns:xlink="http://www.w3.org/1999/xlink" width="1000" height="1000"><style>
    #light-icon {
      display: inline;
    }
    #dark-icon {
      display: none;
    }

    @media (prefers-color-scheme: dark) {
      #light-icon {
        display: none;
      }
      #dark-icon {
        display: inline;
      }
    }
  </style><g id="light-icon"><svg xmlns="http://www.w3.org/2000/svg" version="1.1" xmlns:xlink="http://www.w3.org/1999/xlink" width="1000" height="1000"><g><g transform="matrix(0.8726003490401396,0,0,0.8726003490401396,0,369.98254799301924)"><svg xmlns="http://www.w3.org/2000/svg" version="1.1" xmlns:xlink="http://www.w3.org/1999/xlink" width="1146" height="298"><svg width="1146" height="298" viewBox="0 0 1146 298" fill="none" xmlns="http://www.w3.org/2000/svg">
<g clip-path="url(#clip0_21_352)">
<path d="M150.397 123.908C180.536 123.908 197.281 109.769 197.281 84.0939C197.281 58.7913 180.536 44.6516 150.397 44.6516H0.813965V0H150.397C216.258 0 253.095 30.1398 253.095 84.0939C253.095 132.094 224.816 161.118 172.35 167.444L260.537 297.677H197.653L110.583 168.56H105.001C71.5124 168.56 52.9076 187.165 52.9076 220.653V297.677H0.813965V220.653C0.813965 158.513 38.0237 123.908 105.001 123.908H150.397Z" fill="#0A0A0A"></path>
</g>
<path d="M520.959 109.272V153.923H410.074C376.585 153.923 357.98 172.528 357.98 206.017V253.273H528.401V297.925H305.887V213.459C305.887 146.481 343.097 109.272 410.074 109.272H520.959Z" fill="#0A0A0A"></path>
<path d="M305.708 0V44.6516L528.346 45.2718V0H305.708Z" fill="#FF1801"></path>
<path d="M680.309 297.677L572.401 0H627.844L706.357 216.56L784.869 0H840.311L732.403 297.677H680.309Z" fill="#0A0A0A"></path>
<path d="M1034.53 110.509C1031.25 115.202 1029.52 118.968 1028.81 121.704C1028.42 123.228 1028.34 124.468 1028.52 125.38C1028.7 126.282 1029.17 126.992 1029.97 127.146C1030.72 127.291 1031.51 126.882 1032.22 126.191C1032.95 125.481 1033.68 124.386 1034.33 122.911C1035.48 120.303 1036.41 116.447 1036.61 111.255L1056.91 154.431C1043.24 149.698 1034.49 147.965 1029.51 147.911C1028.23 147.897 1027.18 147.994 1026.35 148.188C1025.53 148.38 1024.88 148.677 1024.45 149.098C1024 149.54 1023.82 150.093 1023.91 150.687C1023.99 151.252 1024.31 151.813 1024.76 152.342C1025.68 153.403 1027.28 154.491 1029.36 155.44C1031.46 156.394 1034.08 157.226 1037.05 157.752C1041.67 158.567 1047.17 158.65 1052.96 157.306L984.923 192.982C963.708 203.813 951.465 211.733 944.524 218.395C941.048 221.732 938.887 224.767 937.598 227.71C936.308 230.656 935.905 233.481 935.905 236.376C935.905 242.212 938.112 246.693 942.689 249.687C947.228 252.656 954.042 254.129 963.196 254.129H1144.28V297.177H965.801C939.819 297.177 919.569 291.409 905.825 280.899C892.099 270.403 884.811 255.139 884.811 236.008C884.811 219.409 889.058 205.119 900.695 191.178C912.352 177.215 931.444 163.578 961.191 148.355L961.192 148.354L1034.53 110.509ZM1029.5 148.911C1034.29 148.963 1042.85 150.634 1056.36 155.3C1049.41 157.645 1042.68 157.731 1037.23 156.767C1034.33 156.255 1031.79 155.447 1029.78 154.531C1027.76 153.61 1026.3 152.595 1025.52 151.689C1025.13 151.235 1024.94 150.846 1024.89 150.543C1024.85 150.268 1024.93 150.033 1025.15 149.812C1025.4 149.571 1025.84 149.333 1026.58 149.162C1027.3 148.992 1028.27 148.897 1029.5 148.911ZM1035.63 110.682C1035.48 116.053 1034.54 119.954 1033.41 122.506C1032.79 123.907 1032.13 124.883 1031.52 125.476C1030.89 126.088 1030.42 126.214 1030.16 126.164C1029.94 126.122 1029.64 125.905 1029.5 125.187C1029.36 124.478 1029.41 123.401 1029.78 121.952C1030.46 119.293 1032.21 115.5 1035.63 110.682Z" fill="#0A0A0A" stroke="#0A0A0A"></path>
<path d="M995.729 187.342C999.002 182.659 1000.73 178.899 1001.43 176.168C1001.82 174.643 1001.9 173.404 1001.72 172.492C1001.54 171.59 1001.08 170.879 1000.28 170.726C999.527 170.581 998.731 170.989 998.024 171.681C997.298 172.39 996.567 173.486 995.916 174.961C994.766 177.564 993.837 181.411 993.631 186.59L973.326 142.769C986.997 147.503 995.751 149.237 1000.73 149.291C1002.01 149.305 1003.06 149.208 1003.89 149.015C1004.72 148.823 1005.36 148.525 1005.79 148.104C1006.24 147.662 1006.42 147.11 1006.34 146.516C1006.26 145.95 1005.94 145.39 1005.48 144.86C1004.57 143.8 1002.96 142.711 1000.88 141.762C998.785 140.807 996.168 139.976 993.191 139.45C988.583 138.637 983.095 138.553 977.322 139.888L1044.71 104.693C1065.92 93.8632 1078.16 85.9436 1085.1 79.2822C1088.58 75.9456 1090.74 72.9104 1092.02 69.9678C1093.32 67.0216 1093.72 64.1969 1093.72 61.3018C1093.72 55.465 1091.51 50.9845 1086.93 47.9902C1082.4 45.0209 1075.58 43.5488 1066.43 43.5488L885.344 43.5488V0.5L1063.82 0.5C1089.8 0.5 1110.05 6.26847 1123.8 16.7783C1137.52 27.2745 1144.81 42.5386 1144.81 61.6689C1144.81 78.2681 1140.57 92.5587 1128.93 106.499C1117.27 120.462 1098.18 134.099 1068.43 149.322L1068.43 149.324L995.729 187.342ZM1000.74 148.291C995.953 148.239 987.392 146.569 973.877 141.902C980.832 139.558 987.561 139.472 993.017 140.436C995.918 140.948 998.453 141.755 1000.46 142.672C1002.49 143.593 1003.94 144.608 1004.72 145.514C1005.12 145.967 1005.3 146.356 1005.35 146.659C1005.39 146.934 1005.32 147.17 1005.09 147.391C1004.85 147.632 1004.4 147.87 1003.67 148.041C1002.94 148.211 1001.98 148.304 1000.74 148.291ZM994.613 187.189C994.767 181.818 995.703 177.918 996.831 175.365C997.449 173.965 998.116 172.989 998.723 172.396C999.349 171.784 999.824 171.657 1000.09 171.708C1000.31 171.75 1000.6 171.966 1000.74 172.685C1000.88 173.394 1000.83 174.471 1000.46 175.92C999.779 178.578 998.036 182.372 994.613 187.189Z" fill="#0A0A0A" stroke="#0A0A0A"></path>
<defs>
<clipPath id="clip0_21_352">
<rect width="261.708" height="297.677" fill="white"></rect>
</clipPath>
</defs>
</svg></svg></g></g></svg></g><g id="dark-icon"><svg xmlns="http://www.w3.org/2000/svg" version="1.1" xmlns:xlink="http://www.w3.org/1999/xlink" width="1000" height="1000"><g><g transform="matrix(1.4285714285714286,0,0,1.4285714285714286,0,370)"><svg xmlns="http://www.w3.org/2000/svg" version="1.1" xmlns:xlink="http://www.w3.org/1999/xlink" width="700" height="182"><svg width="700" height="182" viewBox="0 0 700 182" fill="none" xmlns="http://www.w3.org/2000/svg">
<g clip-path="url(#clip0_47_579)">
<mask id="mask0_47_579" style="mask-type:luminance" maskUnits="userSpaceOnUse" x="0" y="0" width="161" height="182">
<path d="M160.136 0H0V181.803H160.136V0Z" fill="white"></path>
</mask>
<g mask="url(#mask0_47_579)">
<path d="M92.0261 75.6754C110.468 75.6754 120.714 67.0401 120.714 51.3594C120.714 35.9061 110.468 27.2704 92.0261 27.2704H0.498047V0H92.0261C132.326 0 154.866 18.4075 154.866 51.3594C154.866 80.6749 137.562 98.4009 105.459 102.264L159.419 181.803H120.942L67.6644 102.946H64.2489C43.7576 102.946 32.3735 114.309 32.3735 134.761V181.803H0.498047V134.761C0.498047 96.81 23.2662 75.6754 64.2489 75.6754H92.0261Z" fill="white"></path>
</g>
<path d="M318.543 66.5851V93.8558H250.693C230.201 93.8558 218.818 105.219 218.818 125.672V154.533H323.096V181.803H186.942V130.216C186.942 89.3107 209.711 66.5851 250.693 66.5851H318.543Z" fill="white"></path>
<path d="M186.833 0V27.2704L323.062 27.6492V0H186.833Z" fill="#FF1801"></path>
<path d="M318.543 66.5851V93.8558H250.693C230.201 93.8558 218.818 105.219 218.818 125.672V154.533H323.096V181.803H186.942V130.216C186.942 89.3107 209.711 66.5851 250.693 66.5851H318.543Z" fill="white"></path>
<path d="M186.833 0V27.2704L323.062 27.6492V0H186.833Z" fill="#FF1801"></path>
<path d="M318.543 66.5851V93.8558H250.693C230.201 93.8558 218.818 105.219 218.818 125.672V154.533H323.096V181.803H186.942V130.216C186.942 89.3107 209.711 66.5851 250.693 66.5851H318.543Z" fill="white"></path>
<path d="M186.833 0V27.2704L323.062 27.6492V0H186.833Z" fill="#FF1801"></path>
<path d="M415.613 181.803L349.585 0H383.509L431.551 132.261L479.591 0H513.516L447.488 181.803H415.613Z" fill="white"></path>
<path d="M631.658 67.4921C629.645 70.3583 628.587 72.6583 628.158 74.3293C627.92 75.26 627.871 76.0174 627.981 76.5744C628.085 77.1252 628.372 77.5589 628.862 77.6529C629.321 77.7415 629.81 77.4917 630.245 77.0697C630.685 76.636 631.132 75.9673 631.53 75.0664C632.24 73.4736 632.809 71.1186 632.931 67.9477L645.352 94.3169C636.988 91.4263 631.634 90.3679 628.587 90.3349C627.803 90.3263 627.161 90.3856 626.653 90.5041C626.145 90.6213 625.754 90.8027 625.49 91.0598C625.215 91.3298 625.105 91.6675 625.154 92.0303C625.203 92.3754 625.399 92.718 625.68 93.0411C626.237 93.6891 627.222 94.3536 628.495 94.9331C629.78 95.5158 631.377 96.0239 633.2 96.3452C636.027 96.8429 639.393 96.8936 642.929 96.0728L601.302 117.861C588.321 124.476 580.83 129.313 576.583 133.382C574.456 135.42 573.134 137.274 572.345 139.071C571.556 140.87 571.309 142.596 571.309 144.364C571.309 147.928 572.659 150.665 575.46 152.493C578.237 154.307 582.407 155.206 588.008 155.206H698.813V181.497H589.601C573.704 181.497 561.313 177.975 552.903 171.556C544.505 165.145 540.045 155.823 540.045 144.139C540.045 134.001 542.644 125.274 549.764 116.76C556.897 108.232 568.579 99.9033 586.781 90.6061L586.782 90.6055L631.658 67.4921ZM628.58 90.9456C631.511 90.9774 636.749 91.9979 645.016 94.8476C640.763 96.2798 636.645 96.3323 633.304 95.7436C631.53 95.4309 629.982 94.9374 628.752 94.378C627.51 93.8155 626.622 93.1956 626.145 92.6423C625.9 92.365 625.79 92.1274 625.76 91.9424C625.735 91.7744 625.778 91.6309 625.919 91.4959C626.066 91.3487 626.341 91.2034 626.788 91.0989C627.234 90.9951 627.822 90.9371 628.58 90.9456ZM632.331 67.5977C632.233 70.878 631.664 73.2605 630.973 74.8191C630.594 75.6747 630.184 76.2708 629.817 76.633C629.431 77.0068 629.143 77.0837 628.978 77.0532C628.844 77.0275 628.666 76.895 628.58 76.4565C628.495 76.0235 628.525 75.3657 628.752 74.4807C629.168 72.8568 630.233 70.5403 632.331 67.5977Z" fill="white" stroke="white"></path>
<path d="M607.914 114.417C609.917 111.557 610.974 109.261 611.402 107.593C611.641 106.661 611.69 105.905 611.581 105.348C611.473 104.797 611.186 104.362 610.698 104.269C610.238 104.18 609.751 104.43 609.319 104.852C608.874 105.285 608.427 105.955 608.028 106.855C607.325 108.445 606.757 110.795 606.631 113.958L594.206 87.1945C602.571 90.0858 607.927 91.1448 610.976 91.1778C611.76 91.1863 612.402 91.1271 612.91 91.0092C613.412 90.892 613.809 90.71 614.072 90.4528C614.348 90.1829 614.458 89.8458 614.409 89.483C614.354 89.1373 614.158 88.7953 613.883 88.4716C613.32 87.8242 612.341 87.1591 611.066 86.5795C609.784 85.9963 608.183 85.4887 606.361 85.1675C603.542 84.671 600.184 84.6197 596.651 85.435L637.881 63.9401C650.859 57.3259 658.355 52.4891 662.601 48.4207C664.725 46.3829 666.046 44.5292 666.836 42.7321C667.625 40.9327 667.876 39.2076 667.876 37.4394C667.876 33.8746 666.523 31.1382 663.721 29.3095C660.943 27.496 656.776 26.597 651.171 26.597H540.371V0.30542H649.58C665.477 0.30542 677.868 3.82844 686.281 10.2472C694.676 16.6576 699.137 25.98 699.137 37.6636C699.137 47.8014 696.537 56.5292 689.42 65.0431C682.286 73.5708 670.605 81.8994 652.401 91.1967V91.1979L607.914 114.417ZM610.982 90.567C608.051 90.5353 602.813 89.5153 594.543 86.665C598.799 85.2335 602.916 85.1809 606.255 85.7697C608.03 86.0824 609.581 86.5753 610.812 87.1353C612.047 87.6978 612.94 88.3177 613.418 88.871C613.656 89.1477 613.773 89.3853 613.803 89.5703C613.828 89.7383 613.779 89.8824 613.644 90.0174C613.491 90.1646 613.222 90.3099 612.769 90.4144C612.329 90.5182 611.736 90.575 610.982 90.567ZM607.232 114.324C607.326 111.043 607.898 108.661 608.588 107.102C608.967 106.247 609.375 105.651 609.746 105.289C610.129 104.915 610.42 104.838 610.582 104.869C610.715 104.894 610.895 105.026 610.981 105.465C611.066 105.898 611.037 106.556 610.809 107.441C610.393 109.064 609.326 111.382 607.232 114.324Z" fill="white" stroke="white"></path>
</g>
<defs>
<clipPath id="clip0_47_579">
<rect width="700" height="182" fill="white"></rect>
</clipPath>
</defs>
</svg></svg></g></g></svg></g></svg>